# xmcd CD database file
#
# Track frame offsets:
#	150
#	51505
#	87640
#	125103
#	161648
#	200550
#
# Disc length: 3870 seconds
#
# Revision: 0
# Processed by: cddbd v1.4PL0 Copyright (c) Steve Scherf et al.
# Submitted via: CDex 1.50Beta7
#
DISCID=5b0f1c06
DTITLE=Luluk Purwanto and the Heldsingen Trio - The Stage Bus
DYEAR=1900
DGENRE=Jazz
TTITLE0=Stage Bus
TTITLE1=Bareng
TTITLE2=Ayem
TTITLE3=Bobok
TTITLE4=Solo
TTITLE5=TNT
EXTD=
EXTT0=
EXTT1=
EXTT2=
EXTT3=
EXTT4=
EXTT5=
PLAYORDER=
